# xmcd CD database file
#
# Track frame offsets:
#	150
#	13823
#	26034
#	41800
#	59953
#	79130
#	97027
#	114084
#	131007
#	146764
#	159288
#	178539
#	196395
#	212417
#	230472
#
# Disc length: 3284 seconds
#
# Revision: 1
# Processed by: cddbd v1.4PL0 Copyright (c) Steve Scherf et al.
# Submitted via: CDex 1.50beta9
#
DISCID=d20cd20f
DTITLE=João Haroldo and Betinho - Coração Profano
DYEAR=2002
DGENRE=Country
TTITLE0=90% mais mulher
TTITLE1=A namorada que sonhei
TTITLE2=Agora é tarde
TTITLE3=Vai por aí
TTITLE4=Colar de Paixões
TTITLE5=Coração Profano
TTITLE6=Culpados
TTITLE7=Vaga Mulher
TTITLE8=Jornal de Ontem
TTITLE9=Mineiro de Monte Belo
TTITLE10=Nunca mais vou te enganar
TTITLE11=Pra que eu te esqueça
TTITLE12=Se queres assim
TTITLE13=Taça de Vinho
TTITLE14=Você diz que me ama
EXTD=YEAR: 2002
EXTT0=
EXTT1=
EXTT2=
EXTT3=
EXTT4=
EXTT5=
EXTT6=
EXTT7=
EXTT8=
EXTT9=
EXTT10=
EXTT11=
EXTT12=
EXTT13=
EXTT14=
PLAYORDER=
